<svg width="95" height="40" viewBox="0 0 95 40" fill="none" xmlns="http://www.w3.org/2000/svg">
    <path fill-rule="evenodd" clip-rule="evenodd" d="M17.9252 5.28684C16.8235 6.60646 15.0609 7.64728 13.2982 7.49859C13.0779 5.71432 13.9408 3.81854 14.9507 2.64761C16.0523 1.29082 17.9802 0.324345 19.5409 0.25C19.7245 2.10861 19.0085 3.93005 17.9252 5.28684ZM19.5225 7.85148C17.9696 7.76101 16.5527 8.32421 15.4082 8.77913C14.6717 9.07188 14.048 9.31978 13.5736 9.31978C13.0411 9.31978 12.3916 9.05862 11.6625 8.7654C10.707 8.38118 9.6147 7.94191 8.4692 7.963C5.84358 8.00017 3.40157 9.50564 2.06122 11.9033C-0.692926 16.6985 1.34514 23.7984 4.00748 27.7015C5.31111 29.6344 6.8718 31.7532 8.92823 31.6789C9.83293 31.6443 10.4837 31.3648 11.1572 31.0755C11.9326 30.7424 12.7381 30.3964 13.9959 30.3964C15.21 30.3964 15.9803 30.7334 16.7197 31.0569C17.4227 31.3645 18.0979 31.6598 19.1002 31.6417C21.2301 31.6045 22.5704 29.7088 23.8741 27.7758C25.2809 25.7012 25.8991 23.6765 25.9929 23.3693L25.993 23.3689L25.9932 23.3684L25.9933 23.3681C25.9985 23.3512 26.002 23.3396 26.0039 23.3337C26.0017 23.3314 25.9843 23.3234 25.9536 23.3092C25.4833 23.0912 21.8888 21.4255 21.8544 16.9587C21.8197 13.2094 24.7054 11.3098 25.1597 11.0108L25.1597 11.0108C25.1874 10.9926 25.206 10.9803 25.2144 10.9739C23.3783 8.2232 20.514 7.92582 19.5225 7.85148ZM34.2665 31.4376V2.46182H45.0077C50.5527 2.46182 54.4269 6.32773 54.4269 11.9779C54.4269 17.6281 50.4793 21.5312 44.8608 21.5312H38.7099V31.4376H34.2665ZM38.7095 6.25364H43.8323C47.6881 6.25364 49.8914 8.33529 49.8914 11.9968C49.8914 15.6582 47.6881 17.7585 43.8139 17.7585H38.7095V6.25364ZM69.0975 27.9618C67.9224 30.2294 65.3335 31.6605 62.5426 31.6605C58.4114 31.6605 55.5287 29.1699 55.5287 25.4155C55.5287 21.6983 58.3196 19.5609 63.479 19.245L69.0241 18.9104V17.312C69.0241 14.9516 67.5001 13.6691 64.7827 13.6691C62.5426 13.6691 60.9085 14.84 60.578 16.6243H56.5753C56.7038 12.8699 60.1924 10.1378 64.9112 10.1378C69.9972 10.1378 73.3022 12.8327 73.3022 17.0146V31.4374H69.1893V27.9618H69.0975ZM63.7359 28.2224C61.3674 28.2224 59.8618 27.0701 59.8618 25.3044C59.8618 23.483 61.3123 22.4236 64.0848 22.2563L69.0239 21.9403V23.5759C69.0239 26.2895 66.7471 28.2224 63.7359 28.2224ZM86.9441 32.571C85.163 37.645 83.125 39.3178 78.7918 39.3178C78.4613 39.3178 77.3596 39.2806 77.1026 39.2062V35.7306C77.378 35.7678 78.0574 35.805 78.4062 35.805C80.3708 35.805 81.4725 34.9686 82.1518 32.794L82.5558 31.5116L75.0278 10.4163H79.6731L84.906 27.5342H84.9978L90.2307 10.4163H94.7475L86.9441 32.571Z" fill="black"/>
</svg>