<svg width="36" height="38" viewBox="0 0 36 38" fill="none" xmlns="http://www.w3.org/2000/svg">
    <path d="M1.76816 32.105L0.772667 32.0102L1.76816 32.105ZM34.2326 32.105L35.2281 32.0102L34.2326 32.105ZM32.6453 15.4383L31.6498 15.5331L32.6453 15.4383ZM3.35546 15.4383L4.35096 15.5331L3.35546 15.4383ZM8.66705 17.9167C8.66705 18.469 9.11476 18.9167 9.66705 18.9167C10.2193 18.9167 10.667 18.469 10.667 17.9167H8.66705ZM25.3337 17.9167C25.3337 18.469 25.7814 18.9167 26.3337 18.9167C26.886 18.9167 27.3337 18.469 27.3337 17.9167H25.3337ZM7.50336 12.6667H28.4974V10.6667H7.50336V12.6667ZM31.6498 15.5331L33.2371 32.1998L35.2281 32.0102L33.6408 15.3435L31.6498 15.5331ZM30.0847 35.6667H5.91606V37.6667H30.0847V35.6667ZM2.76366 32.1998L4.35096 15.5331L2.35997 15.3435L0.772667 32.0102L2.76366 32.1998ZM5.91606 35.6667C4.04855 35.6667 2.5866 34.0589 2.76366 32.1998L0.772667 32.0102C0.483784 35.0434 2.86906 37.6667 5.91606 37.6667V35.6667ZM33.2371 32.1998C33.4142 34.0589 31.9522 35.6667 30.0847 35.6667V37.6667C33.1317 37.6667 35.517 35.0434 35.2281 32.0102L33.2371 32.1998ZM28.4974 12.6667C30.13 12.6667 31.495 13.9079 31.6498 15.5331L33.6408 15.3435C33.3883 12.6918 31.1611 10.6667 28.4974 10.6667V12.6667ZM7.50336 10.6667C4.83964 10.6667 2.61251 12.6918 2.35997 15.3435L4.35096 15.5331C4.50574 13.9079 5.87076 12.6667 7.50336 12.6667V10.6667ZM10.667 9.58333C10.667 5.53324 13.9503 2.25 18.0004 2.25V0.25C12.8457 0.25 8.66705 4.42868 8.66705 9.58333H10.667ZM18.0004 2.25C22.0505 2.25 25.3337 5.53324 25.3337 9.58333H27.3337C27.3337 4.42868 23.155 0.25 18.0004 0.25V2.25ZM8.66705 9.58333V17.9167H10.667V9.58333H8.66705ZM25.3337 9.58333V17.9167H27.3337V9.58333H25.3337Z" fill="white"/>
</svg>