<svg width="42" height="40" viewBox="0 0 42 40" fill="none" xmlns="http://www.w3.org/2000/svg">
    <path d="M32.4166 30.4167C30.1154 30.4167 28.25 32.2821 28.25 34.5833C28.25 36.8845 30.1154 38.75 32.4166 38.75C34.7178 38.75 36.5833 36.8845 36.5833 34.5833C36.5833 32.2821 34.7178 30.4167 32.4166 30.4167ZM32.4166 30.4167H12.3485C11.3117 30.4167 10.4327 29.6543 10.2861 28.628L9.64877 24.1667M1.16663 1.25H6.37496L6.9702 5.41667M6.9702 5.41667H7.41663H40.75L34.5 24.1667H10.5416H9.64877M6.9702 5.41667L9.64877 24.1667M19.9166 34.5833C19.9166 36.8845 18.0511 38.75 15.75 38.75C13.4488 38.75 11.5833 36.8845 11.5833 34.5833C11.5833 32.2821 13.4488 30.4167 15.75 30.4167C18.0511 30.4167 19.9166 32.2821 19.9166 34.5833Z" stroke="white" stroke-width="2" stroke-linecap="round" stroke-linejoin="round"/>
</svg>