<svg width="22" height="22" viewBox="0 0 22 22" fill="none" xmlns="http://www.w3.org/2000/svg">
    <path d="M16.729 16.2083C15.5784 16.2083 14.6457 17.1411 14.6457 18.2917C14.6457 19.4423 15.5784 20.375 16.729 20.375C17.8796 20.375 18.8123 19.4423 18.8123 18.2917C18.8123 17.1411 17.8796 16.2083 16.729 16.2083ZM16.729 16.2083H6.69494C6.17655 16.2083 5.73705 15.8272 5.66374 15.314L5.34508 13.0833M1.104 1.625H3.70817L4.00579 3.70833M4.00579 3.70833H4.229H20.8957L17.7707 13.0833H5.7915H5.34508M4.00579 3.70833L5.34508 13.0833M10.479 18.2917C10.479 19.4423 9.54626 20.375 8.39567 20.375C7.24508 20.375 6.31234 19.4423 6.31234 18.2917C6.31234 17.1411 7.24508 16.2083 8.39567 16.2083C9.54626 16.2083 10.479 17.1411 10.479 18.2917Z" stroke="white" stroke-width="1.5" stroke-linecap="round" stroke-linejoin="round"/>
</svg>