<svg width="22" height="22" viewBox="0 0 22 22" fill="none" xmlns="http://www.w3.org/2000/svg">
    <path d="M16.7291 16.2083C15.5785 16.2083 14.6458 17.1411 14.6458 18.2917C14.6458 19.4423 15.5785 20.375 16.7291 20.375C17.8797 20.375 18.8125 19.4423 18.8125 18.2917C18.8125 17.1411 17.8797 16.2083 16.7291 16.2083ZM16.7291 16.2083H6.69506C6.17667 16.2083 5.73717 15.8272 5.66386 15.314L5.3452 13.0833M1.10413 1.625H3.70829L4.00591 3.70833M4.00591 3.70833H4.22913H20.8958L17.7708 13.0833H5.79163H5.3452M4.00591 3.70833L5.3452 13.0833M10.4791 18.2917C10.4791 19.4423 9.54639 20.375 8.39579 20.375C7.2452 20.375 6.31246 19.4423 6.31246 18.2917C6.31246 17.1411 7.2452 16.2083 8.39579 16.2083C9.54639 16.2083 10.4791 17.1411 10.4791 18.2917Z" stroke="#140050" stroke-width="1.5" stroke-linecap="round" stroke-linejoin="round"/>
</svg>