<svg width="40" height="40" viewBox="0 0 40 40" fill="none" xmlns="http://www.w3.org/2000/svg">
    <path d="M26.957 14.4571C27.3475 14.0666 27.3475 13.4334 26.957 13.0429C26.5664 12.6524 25.9333 12.6524 25.5428 13.0429L26.957 14.4571ZM13.0428 25.5429C12.6522 25.9334 12.6522 26.5666 13.0428 26.9571C13.4333 27.3476 14.0665 27.3476 14.457 26.9571L13.0428 25.5429ZM14.4572 13.0429C14.0667 12.6524 13.4336 12.6524 13.043 13.0429C12.6525 13.4334 12.6525 14.0666 13.043 14.4571L14.4572 13.0429ZM25.543 26.9571C25.9335 27.3476 26.5667 27.3476 26.9572 26.9571C27.3478 26.5666 27.3478 25.9334 26.9572 25.5429L25.543 26.9571ZM25.5428 13.0429L13.0428 25.5429L14.457 26.9571L26.957 14.4571L25.5428 13.0429ZM13.043 14.4571L25.543 26.9571L26.9572 25.5429L14.4572 13.0429L13.043 14.4571ZM37.75 20C37.75 29.8031 29.8031 37.75 20 37.75V39.75C30.9076 39.75 39.75 30.9076 39.75 20H37.75ZM20 37.75C10.1969 37.75 2.25 29.8031 2.25 20H0.25C0.25 30.9076 9.09238 39.75 20 39.75V37.75ZM2.25 20C2.25 10.1969 10.1969 2.25 20 2.25V0.25C9.09238 0.25 0.25 9.09238 0.25 20H2.25ZM20 2.25C29.8031 2.25 37.75 10.1969 37.75 20H39.75C39.75 9.09238 30.9076 0.25 20 0.25V2.25Z" fill="#fff"/>
</svg>