<svg width="23" height="22" viewBox="0 0 23 22" fill="none" xmlns="http://www.w3.org/2000/svg">
    <path d="M9.17082 4.01582C9.90246 3.82005 10.6794 3.70833 11.4999 3.70833C18.1287 3.70833 21.9166 11 21.9166 11C21.9166 11 21.0531 12.6623 19.4291 14.3995M3.53025 7.64398C1.93242 9.36535 1.08325 11 1.08325 11C1.08325 11 4.87113 18.2917 11.4999 18.2917C12.3354 18.2917 13.1258 18.1758 13.8691 17.9734M10.9791 14.0818C9.84974 13.8923 8.92578 13.0971 8.55274 12.0417M12.0208 7.91821C13.3293 8.13775 14.3622 9.17057 14.5817 10.4792M2.12492 1.625L20.8749 20.375" stroke="#140050" stroke-width="1.5" stroke-linecap="round" stroke-linejoin="round"/>
</svg>