<svg width="95" height="40" viewBox="0 0 95 40" fill="none" xmlns="http://www.w3.org/2000/svg">
    <path fill-rule="evenodd" clip-rule="evenodd" d="M43.7381 31.0933V19.7648H49.585C51.981 19.7648 54.0032 18.962 55.6518 17.3786L56.0474 16.9772C59.0588 13.6991 58.861 8.5923 55.6518 5.55945C54.0472 3.95382 51.8491 3.08411 49.585 3.12871H40.1992V31.0933H43.7381ZM43.7386 16.3301V6.56255H49.6744C50.9495 6.56255 52.1586 7.05316 53.06 7.94517C54.9726 9.8184 55.0166 12.9405 53.1699 14.8806C52.2685 15.8395 50.9934 16.3747 49.6744 16.3301H43.7386ZM72.5549 13.454C71.0382 12.0491 68.972 11.3355 66.3563 11.3355C62.9932 11.3355 60.4655 12.5843 58.7949 15.0596L61.9162 17.0444C63.0592 15.3495 64.6198 14.5021 66.5981 14.5021C67.851 14.5021 69.06 14.9704 70.0051 15.8178C70.9283 16.6206 71.4559 17.7803 71.4559 19.0068V19.8319C70.0931 19.0737 68.3786 18.6723 66.2684 18.6723C63.8065 18.6723 61.8283 19.2521 60.3555 20.434C58.8828 21.6159 58.1355 23.177 58.1355 25.1617C58.0915 26.968 58.8609 28.6851 60.2237 29.8448C61.6085 31.0936 63.3669 31.718 65.4331 31.718C67.873 31.718 69.8073 30.6253 71.28 28.4398H71.4339V31.0936H74.8189V19.2967C74.8189 16.8214 74.0716 14.8589 72.5549 13.454ZM62.9499 27.5704C62.2245 27.0352 61.7848 26.1654 61.7848 25.2288C61.7848 24.1807 62.2684 23.311 63.2138 22.6197C64.1811 21.9284 65.3902 21.5716 66.8192 21.5716C68.7978 21.5493 70.3367 21.9953 71.4359 22.8873C71.4359 24.4037 70.8423 25.7194 69.6772 26.8344C68.6219 27.9049 67.1929 28.507 65.698 28.507C64.7087 28.5293 63.7414 28.1948 62.9499 27.5704ZM82.4244 39.5008L94.2501 11.9599H90.4034L84.9302 25.6969H84.8642L79.2591 11.9599H75.4125L83.1717 29.867L78.7755 39.5008H82.4244Z" fill="#3C4043"/>
    <path d="M31.5203 17.3113C31.5203 16.2186 31.4324 15.1258 31.2565 14.0554H16.3315V20.2326H24.8821C24.5304 22.2173 23.3874 24.0014 21.7168 25.1164V29.1305H26.8164C29.8058 26.3429 31.5203 22.2173 31.5203 17.3113Z" fill="#4285F4"/>
    <path d="M16.3319 33.0107C20.5962 33.0107 24.2011 31.5835 26.8168 29.1305L21.7172 25.1164C20.2885 26.0976 18.4641 26.6551 16.3319 26.6551C12.1995 26.6551 8.70457 23.823 7.45166 20.0319H2.19824V24.1798C4.8799 29.5988 10.3531 33.0107 16.3319 33.0107Z" fill="#34A853"/>
    <path d="M7.45255 20.0324C6.79302 18.0477 6.79302 15.8845 7.45255 13.8775V9.75195H2.19829C-0.0660969 14.2789 -0.0660969 19.631 2.19829 24.158L7.45255 20.0324Z" fill="#FBBC04"/>
    <path d="M16.3319 7.25391C18.596 7.20931 20.7721 8.07902 22.3986 9.66235L26.9267 5.06848C24.0472 2.34783 20.2665 0.853709 16.3319 0.898309C10.3531 0.898309 4.87991 4.33256 2.19824 9.75155L7.45166 13.8994C8.70457 10.0861 12.1995 7.25391 16.3319 7.25391Z" fill="#EA4335"/>
</svg>