<svg width="50" height="50" viewBox="0 0 50 50" fill="none" xmlns="http://www.w3.org/2000/svg">
<path d="M42.75 25C42.75 34.8031 34.8031 42.75 25 42.75V44.75C35.9076 44.75 44.75 35.9076 44.75 25H42.75ZM25 42.75C15.1969 42.75 7.25 34.8031 7.25 25H5.25C5.25 35.9076 14.0924 44.75 25 44.75V42.75ZM7.25 25C7.25 15.1969 15.1969 7.25 25 7.25V5.25C14.0924 5.25 5.25 14.0924 5.25 25H7.25ZM25 7.25C34.8031 7.25 42.75 15.1969 42.75 25H44.75C44.75 14.0924 35.9076 5.25 25 5.25V7.25ZM25 6.25C24.4 7.05 24.3997 7.04974 24.3993 7.04951C24.3993 7.04946 24.399 7.04925 24.3989 7.04916C24.3986 7.04897 24.3985 7.04888 24.3985 7.04888C24.3985 7.04888 24.399 7.04926 24.4 7.05001C24.402 7.05152 24.4059 7.05452 24.4117 7.05903C24.4234 7.06806 24.4426 7.08308 24.4689 7.10411C24.5215 7.14617 24.6023 7.21222 24.7073 7.30223C24.9174 7.48229 25.2239 7.75793 25.595 8.12898C26.3376 8.87159 27.3352 9.99309 28.3346 11.4922C30.3309 14.4866 32.3333 18.9843 32.3333 25H34.3333C34.3333 18.5157 32.1691 13.6384 29.9987 10.3828C28.9148 8.75691 27.8291 7.53466 27.0092 6.71477C26.599 6.30457 26.2545 5.99427 26.0089 5.78371C25.886 5.67841 25.7878 5.59797 25.7183 5.54237C25.6835 5.51457 25.656 5.49298 25.6361 5.47759C25.6261 5.46989 25.6181 5.46374 25.6121 5.45915C25.6091 5.45685 25.6065 5.45494 25.6045 5.45341C25.6035 5.45265 25.6026 5.45198 25.6019 5.45142C25.6015 5.45113 25.601 5.45078 25.6008 5.45064C25.6004 5.45031 25.6 5.45 25 6.25ZM32.3333 25C32.3333 31.0157 30.3309 35.5134 28.3346 38.5078C27.3352 40.0069 26.3376 41.1284 25.595 41.871C25.2239 42.2421 24.9174 42.5177 24.7073 42.6978C24.6023 42.7878 24.5215 42.8538 24.4689 42.8959C24.4426 42.9169 24.4234 42.9319 24.4117 42.941C24.4059 42.9455 24.402 42.9485 24.4 42.95C24.399 42.9507 24.3985 42.9511 24.3985 42.9511C24.3985 42.9511 24.3986 42.951 24.3989 42.9508C24.399 42.9507 24.3993 42.9505 24.3993 42.9505C24.3997 42.9503 24.4 42.95 25 43.75C25.6 44.55 25.6004 44.5497 25.6008 44.5494C25.601 44.5492 25.6015 44.5489 25.6019 44.5486C25.6026 44.548 25.6035 44.5473 25.6045 44.5466C25.6065 44.5451 25.6091 44.5432 25.6121 44.5409C25.6181 44.5363 25.6261 44.5301 25.6361 44.5224C25.656 44.507 25.6835 44.4854 25.7183 44.4576C25.7878 44.402 25.886 44.3216 26.0089 44.2163C26.2545 44.0057 26.599 43.6954 27.0092 43.2852C27.8291 42.4653 28.9148 41.2431 29.9987 39.6172C32.1691 36.3616 34.3333 31.4843 34.3333 25H32.3333ZM25 43.75C25.6 42.95 25.6003 42.9503 25.6007 42.9505C25.6007 42.9505 25.601 42.9507 25.6011 42.9508C25.6014 42.951 25.6015 42.9511 25.6015 42.9511C25.6015 42.9511 25.601 42.9507 25.6 42.95C25.598 42.9485 25.5941 42.9455 25.5883 42.941C25.5766 42.9319 25.5574 42.9169 25.5311 42.8959C25.4785 42.8538 25.3977 42.7878 25.2927 42.6978C25.0826 42.5177 24.7761 42.2421 24.405 41.871C23.6624 41.1284 22.6648 40.0069 21.6654 38.5078C19.6691 35.5134 17.6667 31.0157 17.6667 25H15.6667C15.6667 31.4843 17.8309 36.3616 20.0013 39.6172C21.0852 41.2431 22.1709 42.4653 22.9908 43.2852C23.401 43.6954 23.7455 44.0057 23.9911 44.2163C24.114 44.3216 24.2122 44.402 24.2817 44.4576C24.3165 44.4854 24.344 44.507 24.3639 44.5224C24.3739 44.5301 24.3819 44.5363 24.3879 44.5409C24.3909 44.5432 24.3935 44.5451 24.3955 44.5466C24.3965 44.5473 24.3974 44.548 24.3981 44.5486C24.3985 44.5489 24.399 44.5492 24.3992 44.5494C24.3996 44.5497 24.4 44.55 25 43.75ZM17.6667 25C17.6667 18.9843 19.6691 14.4866 21.6654 11.4922C22.6648 9.99309 23.6624 8.87159 24.405 8.12898C24.7761 7.75793 25.0826 7.48229 25.2927 7.30223C25.3977 7.21222 25.4785 7.14617 25.5311 7.10411C25.5574 7.08308 25.5766 7.06806 25.5883 7.05903C25.5941 7.05452 25.598 7.05152 25.6 7.05001C25.601 7.04926 25.6015 7.04888 25.6015 7.04888C25.6015 7.04888 25.6014 7.04897 25.6011 7.04916C25.601 7.04925 25.6007 7.04946 25.6007 7.04951C25.6003 7.04974 25.6 7.05 25 6.25C24.4 5.45 24.3996 5.45031 24.3992 5.45064C24.399 5.45078 24.3985 5.45113 24.3981 5.45142C24.3974 5.45198 24.3965 5.45265 24.3955 5.45341C24.3935 5.45494 24.3909 5.45685 24.3879 5.45915C24.3819 5.46374 24.3739 5.46989 24.3639 5.47759C24.344 5.49298 24.3165 5.51457 24.2817 5.54237C24.2122 5.59797 24.114 5.67841 23.9911 5.78371C23.7455 5.99427 23.401 6.30457 22.9908 6.71477C22.1709 7.53466 21.0852 8.75691 20.0013 10.3828C17.8309 13.6384 15.6667 18.5157 15.6667 25H17.6667ZM43.75 24H6.25V26H43.75V24Z" fill="white"/>
</svg>
