<svg width="116" height="89" viewBox="0 0 116 89" fill="none" xmlns="http://www.w3.org/2000/svg">
    <path d="M93.1009 77.7349L89.6908 21.2612C89.5872 19.4996 88.127 18.1338 86.3655 18.1338H76.6816C76.6816 8.139 68.5426 0 58.5478 0C48.553 0 40.414 8.12958 40.414 18.1338H30.7395C28.978 18.1338 27.5178 19.5091 27.4142 21.2612L24.0041 77.7349C23.844 80.4008 24.8048 83.0479 26.6324 84.9979C28.4599 86.9479 31.0504 88.0595 33.7163 88.0595H83.3699C86.0452 88.0595 88.6263 86.9479 90.4538 84.9979C92.3096 83.0479 93.261 80.4008 93.1009 77.7349ZM58.5572 6.65999C64.8875 6.65999 70.031 11.8034 70.031 18.1338H47.0835C47.0835 11.8034 52.2363 6.65999 58.5572 6.65999ZM85.6307 80.4292C85.0466 81.0509 84.2459 81.3994 83.3887 81.3994H33.7352C32.8779 81.3994 32.0866 81.0603 31.4932 80.4292C30.9091 79.8074 30.6077 78.9878 30.6642 78.1306L33.8764 24.7843H83.238L86.4502 78.1306C86.5068 78.9878 86.2147 79.8074 85.6307 80.4292Z" fill="url(#paint0_linear_406:752)"/>
    <path d="M62.9753 73.6561C61.5999 73.6561 60.3094 72.7988 59.8289 71.4235C59.2261 69.6902 60.1398 67.7873 61.8731 67.1844C90.8212 57.0766 106.261 46.8746 108.719 41.2602C108.898 40.8551 108.974 40.4971 108.946 40.2993C108.531 39.9319 106.666 38.9805 98.574 39.2631C96.7371 39.3385 95.1922 37.8877 95.1356 36.0508C95.0697 34.2139 96.511 32.6691 98.3479 32.6126C105.272 32.3771 112.836 32.5465 115.031 37.5769C115.615 38.9145 116.058 41.1095 114.824 43.9262C111.009 52.668 92.0364 63.7085 64.0774 73.4771C63.71 73.5902 63.3332 73.6561 62.9753 73.6561Z" fill="url(#paint1_linear_406:752)"/>
    <path d="M8.82831 71.2444C4.88128 71.2444 1.76319 70.1705 0.453795 67.1466C-2.20268 60.9858 7.31167 53.8078 15.771 48.8622C17.363 47.9296 19.3977 48.4664 20.3303 50.0584C21.2535 51.6504 20.726 53.6853 19.134 54.6179C11.9181 58.8381 7.85803 62.6533 6.87834 64.4148C8.88483 64.9047 17.6644 65.272 50.2863 51.8766C51.9914 51.1795 53.9319 51.9897 54.629 53.6947C55.3261 55.3998 54.516 57.3403 52.811 58.0374C44.3422 61.5134 32.1337 66.2329 22.1201 68.9459C17.5043 70.1893 12.7565 71.2444 8.82831 71.2444Z" fill="url(#paint2_linear_406:752)"/>
    <defs>
        <linearGradient id="paint0_linear_406:752" x1="23.9869" y1="44.0297" x2="93.1182" y2="44.0297" gradientUnits="userSpaceOnUse">
            <stop stop-color="#FF3700"/>
            <stop offset="1" stop-color="#FFC800"/>
        </linearGradient>
        <linearGradient id="paint1_linear_406:752" x1="59.6433" y1="53.1024" x2="115.612" y2="53.1024" gradientUnits="userSpaceOnUse">
            <stop stop-color="#FF3700"/>
            <stop offset="1" stop-color="#FFC800"/>
        </linearGradient>
        <linearGradient id="paint2_linear_406:752" x1="0" y1="59.8242" x2="54.879" y2="59.8242" gradientUnits="userSpaceOnUse">
            <stop stop-color="#FF3700"/>
            <stop offset="1" stop-color="#FFC800"/>
        </linearGradient>
    </defs>
</svg>