<svg width="292" height="227" viewBox="0 0 292 227" fill="none" xmlns="http://www.w3.org/2000/svg">
    <g filter="url(#filter0_d_205:2364)">
        <path d="M228.788 188.678L220.774 55.964C220.53 51.8243 217.099 48.6145 212.959 48.6145H190.202C190.202 25.1267 171.075 6 147.588 6C124.1 6 104.973 25.1046 104.973 48.6145H82.2379C78.0982 48.6145 74.6669 51.8465 74.4234 55.964L66.4097 188.678C66.0333 194.943 68.2914 201.163 72.586 205.746C76.8807 210.328 82.9685 212.941 89.2334 212.941H205.92C212.207 212.941 218.272 210.328 222.567 205.746C226.928 201.163 229.164 194.943 228.788 188.678ZM147.61 21.651C162.486 21.651 174.573 33.7382 174.573 48.6145H120.646C120.646 33.7382 132.756 21.651 147.61 21.651ZM211.233 195.009C209.86 196.47 207.979 197.289 205.964 197.289H89.2777C87.2632 197.289 85.4036 196.493 84.009 195.009C82.6364 193.548 81.928 191.622 82.0609 189.608L89.6097 64.2434H205.61L213.159 189.608C213.291 191.622 212.605 193.548 211.233 195.009Z" fill="url(#paint0_linear_205:2364)"/>
        <path d="M157.993 179.092C154.761 179.092 151.728 177.078 150.599 173.846C149.182 169.772 151.329 165.301 155.403 163.884C223.431 140.13 259.714 116.156 265.492 102.962C265.913 102.01 266.09 101.168 266.023 100.704C265.049 99.8403 260.666 97.6044 241.65 98.2686C237.333 98.4457 233.703 95.0364 233.57 90.7196C233.415 86.4028 236.802 82.7725 241.119 82.6397C257.39 82.0862 275.166 82.4845 280.324 94.3059C281.697 97.4494 282.737 102.608 279.837 109.227C270.871 129.77 226.287 155.715 160.583 178.672C159.719 178.937 158.834 179.092 157.993 179.092Z" fill="url(#paint1_linear_205:2364)"/>
        <path d="M30.7466 173.425C21.471 173.425 14.1435 170.901 11.0664 163.795C4.82367 149.317 27.1825 132.449 47.0619 120.827C50.8031 118.635 55.5848 119.897 57.7764 123.638C59.9459 127.379 58.7062 132.161 54.965 134.353C38.0077 144.27 28.4665 153.236 26.1642 157.376C30.8794 158.527 51.5115 159.39 128.173 127.911C132.18 126.272 136.741 128.176 138.379 132.183C140.017 136.19 138.113 140.75 134.106 142.388C114.205 150.557 85.5146 161.648 61.9825 168.024C51.1352 170.946 39.9779 173.425 30.7466 173.425Z" fill="url(#paint2_linear_205:2364)"/>
    </g>
    <defs>
        <filter id="filter0_d_205:2364" x="0" y="0" width="291.689" height="226.941" filterUnits="userSpaceOnUse" color-interpolation-filters="sRGB">
            <feFlood flood-opacity="0" result="BackgroundImageFix"/>
            <feColorMatrix in="SourceAlpha" type="matrix" values="0 0 0 0 0 0 0 0 0 0 0 0 0 0 0 0 0 0 127 0" result="hardAlpha"/>
            <feOffset dy="4"/>
            <feGaussianBlur stdDeviation="5"/>
            <feComposite in2="hardAlpha" operator="out"/>
            <feColorMatrix type="matrix" values="0 0 0 0 0 0 0 0 0 0 0 0 0 0 0 0 0 0 0.5 0"/>
            <feBlend mode="normal" in2="BackgroundImageFix" result="effect1_dropShadow_205:2364"/>
            <feBlend mode="normal" in="SourceGraphic" in2="effect1_dropShadow_205:2364" result="shape"/>
        </filter>
        <linearGradient id="paint0_linear_205:2364" x1="66.3691" y1="109.47" x2="228.829" y2="109.47" gradientUnits="userSpaceOnUse">
            <stop stop-color="#FF3700"/>
            <stop offset="1" stop-color="#FFC800"/>
        </linearGradient>
        <linearGradient id="paint1_linear_205:2364" x1="150.163" y1="130.791" x2="281.689" y2="130.791" gradientUnits="userSpaceOnUse">
            <stop stop-color="#FF3700"/>
            <stop offset="1" stop-color="#FFC800"/>
        </linearGradient>
        <linearGradient id="paint2_linear_205:2364" x1="10" y1="146.588" x2="138.966" y2="146.588" gradientUnits="userSpaceOnUse">
            <stop stop-color="#FF3700"/>
            <stop offset="1" stop-color="#FFC800"/>
        </linearGradient>
    </defs>
</svg>