<svg width="85" height="53" viewBox="0 0 85 53" fill="none" xmlns="http://www.w3.org/2000/svg">
    <path fill-rule="evenodd" clip-rule="evenodd" d="M42.6153 46.1786C38.1469 50.0347 32.3506 52.3625 26.0169 52.3625C11.8844 52.3625 0.427734 40.7729 0.427734 26.4763C0.427734 12.1798 11.8844 0.590149 26.0169 0.590149C32.3506 0.590149 38.1469 2.91799 42.6153 6.77407C47.0837 2.91799 52.88 0.590149 59.2137 0.590149C73.3462 0.590149 84.8029 12.1798 84.8029 26.4763C84.8029 40.7729 73.3462 52.3625 59.2137 52.3625C52.88 52.3625 47.0837 50.0347 42.6153 46.1786Z" fill="#ED0006"/>
    <path fill-rule="evenodd" clip-rule="evenodd" d="M42.6152 46.1786C48.1172 41.4306 51.6059 34.3656 51.6059 26.4763C51.6059 18.5871 48.1172 11.5221 42.6152 6.77407C47.0836 2.91799 52.8799 0.590149 59.2137 0.590149C73.3462 0.590149 84.8028 12.1798 84.8028 26.4763C84.8028 40.7729 73.3462 52.3625 59.2137 52.3625C52.8799 52.3625 47.0836 50.0347 42.6152 46.1786Z" fill="#F9A000"/>
    <path fill-rule="evenodd" clip-rule="evenodd" d="M42.6152 46.1786C48.1171 41.4306 51.6058 34.3656 51.6058 26.4764C51.6058 18.5871 48.1171 11.5222 42.6152 6.77417C37.1132 11.5222 33.6245 18.5871 33.6245 26.4764C33.6245 34.3656 37.1132 41.4306 42.6152 46.1786Z" fill="#FF5E00"/>
</svg>