<svg width="92" height="28" viewBox="0 0 92 28" fill="none" xmlns="http://www.w3.org/2000/svg">
    <g clip-path="url(#clip0_119:3466)">
        <path fill-rule="evenodd" clip-rule="evenodd" d="M81.6875 0.875H64.25C65.1875 6.6875 70.8125 12.125 77 12.125H90.875C91.0625 11.5625 91.0625 10.8125 91.0625 10.25C91.0625 5 86.9375 0.875 81.6875 0.875Z" fill="url(#paint0_linear_119:3466)"/>
        <path fill-rule="evenodd" clip-rule="evenodd" d="M65.75 13.0625V27.125H74.1875V19.625H81.6875C85.8125 19.625 89.375 16.8125 90.5 13.0625H65.75Z" fill="#4DB45F"/>
        <path fill-rule="evenodd" clip-rule="evenodd" d="M35.75 0.875V27.125H43.25C43.25 27.125 45.125 27.125 46.0625 25.25C51.125 15.125 52.625 12.125 52.625 12.125H53.5625V27.125H62V0.875H54.5C54.5 0.875 52.625 1.0625 51.6875 2.75C47.375 11.375 45.125 15.875 45.125 15.875H44.1875V0.875H35.75Z" fill="#4DB45F"/>
        <path fill-rule="evenodd" clip-rule="evenodd" d="M0.125 27.125V0.875H8.5625C8.5625 0.875 11 0.875 12.3125 4.625C15.6875 14.5625 16.0625 15.875 16.0625 15.875C16.0625 15.875 16.8125 13.4375 19.8125 4.625C21.125 0.875 23.5625 0.875 23.5625 0.875H32V27.125H23.5625V13.0625H22.625L17.9375 27.125H14.1875L9.5 13.0625H8.5625V27.125H0.125Z" fill="#4DB45F"/>
    </g>
    <defs>
        <linearGradient id="paint0_linear_119:3466" x1="64.2016" y1="6.5" x2="91.0625" y2="6.5" gradientUnits="userSpaceOnUse">
            <stop stop-color="#00B4E6"/>
            <stop offset="1" stop-color="#088CCB"/>
        </linearGradient>
        <clipPath id="clip0_119:3466">
            <rect width="91.875" height="26.25" fill="white" transform="translate(0.125 0.875)"/>
        </clipPath>
    </defs>
</svg>