<svg width="110" height="19" viewBox="0 0 110 19" fill="none" xmlns="http://www.w3.org/2000/svg">
    <path d="M101.324 2.02058C100.001 1.13248 98.0438 0.679371 95.452 0.679371H88.6554L86.1361 14.3814H77.237L77.817 11.264H83.1637L83.798 7.76603H78.4332L79.0132 4.66675H84.5411L85.2661 0.661246H74.0471L71.6547 13.6565H67.5404L69.951 0.661246H64.0968L61.7043 13.6565H57.6988L60.1094 0.661246H54.2552L51.7178 14.3633H42.7643L43.3262 11.2459H48.7091L49.3435 7.76603H43.9605L44.5224 4.64862H50.1228L50.8478 0.625H15.922L13.9283 11.5359L9.97721 0.679371H3.8874L0.625 18.4051H6.42482L8.40038 7.24042L12.2428 18.4051H33.0496L35.587 4.703H38.8494L36.312 18.4051H91.0659L92.6609 9.75971L95.2346 18.4051H101.053L98.3882 11.3365L98.9863 11.2097C100.328 10.9197 101.379 10.3034 102.104 9.3791C102.829 8.45475 103.209 7.24041 103.209 5.80858C103.191 4.12301 102.575 2.89055 101.324 2.02058ZM28.011 14.3814H19.13L19.71 11.264H25.2924L25.9267 7.76603H20.3988L20.9244 4.68487H29.8053L28.011 14.3814ZM96.5214 8.40038C95.9414 8.81724 95.0896 8.99849 93.9296 8.99849H92.7696L93.6577 4.24989H94.5096C95.4702 4.24989 96.177 4.413 96.6483 4.72112C97.0289 4.97486 97.4639 5.4461 97.4639 6.37044C97.5001 7.51228 96.9745 8.11039 96.5214 8.40038Z" fill="#83BA3B"/>
    <path d="M105.819 17.2635L105.674 14.4724L106.907 14.3999C107.106 14.3817 107.287 14.3999 107.469 14.4542C107.596 14.4905 107.722 14.5811 107.795 14.708C107.886 14.8348 107.922 14.9798 107.94 15.1248C107.958 15.3061 107.904 15.4873 107.777 15.6323C107.632 15.7954 107.414 15.9042 107.197 15.9223C107.287 15.9586 107.36 15.9948 107.432 16.0492C107.559 16.1579 107.668 16.2667 107.759 16.4117L108.284 17.1366L107.831 17.1548L107.432 16.5929C107.324 16.4298 107.215 16.3029 107.142 16.2304C107.088 16.1579 107.016 16.1036 106.943 16.0492C106.889 16.0129 106.834 15.9948 106.762 15.9767C106.689 15.9767 106.617 15.9586 106.544 15.9767L106.109 15.9948L106.182 17.2273L105.819 17.2635ZM106.109 15.6867L106.907 15.6504C107.034 15.6504 107.179 15.6323 107.306 15.578C107.396 15.5417 107.469 15.4873 107.505 15.3967C107.541 15.3242 107.577 15.2336 107.559 15.143C107.559 15.0161 107.487 14.9073 107.396 14.8167C107.269 14.7261 107.106 14.6899 106.943 14.708L106.055 14.7442L106.109 15.6867Z" fill="#83BA3B"/>
    <path d="M106.635 13.204C105.203 13.2765 104.097 14.509 104.17 15.9408C104.242 17.3727 105.475 18.4783 106.907 18.4058C108.338 18.3333 109.444 17.1008 109.372 15.669C109.299 14.219 108.067 13.1315 106.635 13.204ZM104.605 15.9046C104.514 14.7084 105.42 13.6753 106.599 13.5847C107.795 13.494 108.828 14.4003 108.918 15.5783C108.918 15.6146 108.918 15.6327 108.918 15.669C108.918 15.7052 108.918 15.7415 108.918 15.7777C108.918 16.9739 107.94 17.9345 106.744 17.9345C105.602 17.9526 104.659 17.0464 104.605 15.9046Z" fill="#83BA3B"/>
</svg>