<svg width="40" height="28" viewBox="0 0 40 28" fill="none" xmlns="http://www.w3.org/2000/svg">
    <path d="M7.5 19.25C6.94771 19.25 6.5 19.6977 6.5 20.25C6.5 20.8023 6.94771 21.25 7.5 21.25V19.25ZM14.7917 21.25C15.344 21.25 15.7917 20.8023 15.7917 20.25C15.7917 19.6977 15.344 19.25 14.7917 19.25V21.25ZM5.41667 2.5H34.5833V0.5H5.41667V2.5ZM37.75 5.66667V22.3333H39.75V5.66667H37.75ZM34.5833 25.5H5.41667V27.5H34.5833V25.5ZM2.25 22.3333V5.66667H0.25V22.3333H2.25ZM5.41667 25.5C3.66776 25.5 2.25 24.0822 2.25 22.3333H0.25C0.25 25.1868 2.5632 27.5 5.41667 27.5V25.5ZM37.75 22.3333C37.75 24.0822 36.3322 25.5 34.5833 25.5V27.5C37.4368 27.5 39.75 25.1868 39.75 22.3333H37.75ZM34.5833 2.5C36.3322 2.5 37.75 3.91777 37.75 5.66667H39.75C39.75 2.8132 37.4368 0.5 34.5833 0.5V2.5ZM5.41667 0.5C2.5632 0.5 0.25 2.8132 0.25 5.66667H2.25C2.25 3.91777 3.66777 2.5 5.41667 2.5V0.5ZM1.25 10.8333H38.75V8.83333H1.25V10.8333ZM7.5 21.25H14.7917V19.25H7.5V21.25Z" fill="white"/>
</svg>