<svg width="53" height="50" viewBox="0 0 53 50" fill="none" xmlns="http://www.w3.org/2000/svg">
    <path d="M52.6249 20.4217C52.3543 18.7979 50.8658 17.7153 48.8361 17.7153C48.1595 17.7153 47.6182 17.7153 46.9416 17.7153C45.7238 17.58 45.4531 17.986 45.4531 18.9332C45.4531 23.6693 45.4531 28.2701 45.4531 33.0062C45.4531 35.4419 43.0174 38.013 40.1757 38.5542C31.2448 40.584 22.3138 42.4785 13.3828 44.5082C12.4356 44.7789 11.353 44.7789 10.2705 44.7789C9.86455 44.7789 9.18797 44.5082 9.05266 44.1023C8.91734 43.8316 9.32328 43.2904 9.59392 43.0197C9.99987 42.7491 10.5412 42.4785 11.0824 42.2078C12.7062 41.6665 14.4653 41.1253 16.0892 40.584C22.7197 38.4189 29.3503 36.2538 35.9809 33.9534C38.9579 33.0062 40.5817 30.9765 40.5817 28.4054C40.717 20.2864 40.5817 12.032 40.5817 3.91291C40.5817 2.55974 39.9051 1.4772 38.4166 0.935929C36.6574 0.25934 35.0336 0.800603 33.5451 1.47719C24.0729 5.94267 14.736 10.4082 5.26374 14.8737C2.55738 16.2268 0.933594 18.1213 0.933594 20.8276C0.933594 28.5407 0.933594 36.2538 0.933594 43.967C0.933594 44.3729 0.933561 44.7789 1.06888 45.0495C2.0161 47.6205 4.45185 49.2443 7.69948 49.2443C14.33 49.2443 20.9606 49.2443 27.5912 49.2443C34.2217 49.2443 40.717 49.2443 47.3475 49.2443C48.836 49.2443 50.0539 48.9737 51.1364 48.0265C52.4896 46.9439 52.4896 45.4554 52.4896 44.1023C52.4896 37.4449 52.6249 20.4217 52.6249 20.4217ZM25.0201 17.986C25.6967 16.2268 27.1852 15.1443 29.3503 14.8737C30.8388 14.7383 32.0566 15.5502 32.3273 16.9034C32.5979 18.9332 30.1622 21.3689 27.5912 21.3689C25.5614 21.3689 24.3435 19.8804 25.0201 17.986Z" fill="#FD6727"/>
</svg>