<svg width="21" height="21" viewBox="0 0 21 21" fill="none" xmlns="http://www.w3.org/2000/svg">
    <path d="M11.5 15.698C11.5 15.1457 11.0523 14.698 10.5 14.698C9.94771 14.698 9.5 15.1457 9.5 15.698H11.5ZM9.5 15.7084C9.5 16.2606 9.94771 16.7084 10.5 16.7084C11.0523 16.7084 11.5 16.2606 11.5 15.7084H9.5ZM9.5 12.5833C9.5 13.1356 9.94771 13.5833 10.5 13.5833C11.0523 13.5833 11.5 13.1356 11.5 12.5833H9.5ZM6.40949 7.30402C6.26569 7.83726 6.58139 8.3861 7.11463 8.5299C7.64786 8.6737 8.19671 8.358 8.34051 7.82477L6.40949 7.30402ZM9.5 15.698V15.7084H11.5V15.698H9.5ZM12.625 8.32197C12.625 8.81434 12.3477 9.08342 11.4992 9.66193C10.8162 10.1276 9.5 10.9309 9.5 12.5833H11.5C11.5 12.1524 11.7463 11.9141 12.6258 11.3144C13.3398 10.8276 14.625 10.0076 14.625 8.32197H12.625ZM10.5 6.29167C11.7246 6.29167 12.625 7.22376 12.625 8.32197H14.625C14.625 6.073 12.7824 4.29167 10.5 4.29167V6.29167ZM8.34051 7.82477C8.56615 6.98804 9.43654 6.29167 10.5 6.29167V4.29167C8.6046 4.29167 6.88877 5.52677 6.40949 7.30402L8.34051 7.82477ZM18.875 10.5C18.875 15.1254 15.1254 18.875 10.5 18.875V20.875C16.23 20.875 20.875 16.23 20.875 10.5H18.875ZM10.5 18.875C5.87461 18.875 2.125 15.1254 2.125 10.5H0.125C0.125 16.23 4.77005 20.875 10.5 20.875V18.875ZM2.125 10.5C2.125 5.87461 5.87461 2.125 10.5 2.125V0.125C4.77005 0.125 0.125 4.77005 0.125 10.5H2.125ZM10.5 2.125C15.1254 2.125 18.875 5.87461 18.875 10.5H20.875C20.875 4.77005 16.23 0.125 10.5 0.125V2.125Z" fill="#140050"/>
</svg>