<svg width="41" height="40" viewBox="0 0 41 40" fill="none" xmlns="http://www.w3.org/2000/svg">
    <path d="M21.5 30.3959C21.5 29.8436 21.0523 29.3959 20.5 29.3959C19.9477 29.3959 19.5 29.8436 19.5 30.3959H21.5ZM19.5 30.4167C19.5 30.969 19.9477 31.4167 20.5 31.4167C21.0523 31.4167 21.5 30.969 21.5 30.4167H19.5ZM19.5 24.1667C19.5 24.719 19.9477 25.1667 20.5 25.1667C21.0523 25.1667 21.5 24.719 21.5 24.1667H19.5ZM13.2845 13.8684C13.1407 14.4017 13.4564 14.9505 13.9896 15.0943C14.5229 15.2381 15.0717 14.9224 15.2155 14.3892L13.2845 13.8684ZM19.5 30.3959V30.4167H21.5V30.3959H19.5ZM25.75 15.6439C25.75 17.2253 24.6914 18.0389 23.0617 19.1501C21.5975 20.1484 19.5 21.4726 19.5 24.1667H21.5C21.5 22.6941 22.5275 21.9349 24.1883 20.8026C25.6836 19.7831 27.75 18.4186 27.75 15.6439H25.75ZM20.5 10.5833C23.4781 10.5833 25.75 12.8721 25.75 15.6439H27.75C27.75 11.7214 24.5359 8.58333 20.5 8.58333V10.5833ZM15.2155 14.3892C15.7936 12.2454 17.9571 10.5833 20.5 10.5833V8.58333C17.1252 8.58333 14.1162 10.7842 13.2845 13.8684L15.2155 14.3892ZM38.25 20C38.25 29.8031 30.3031 37.75 20.5 37.75V39.75C31.4076 39.75 40.25 30.9076 40.25 20H38.25ZM20.5 37.75C10.6969 37.75 2.75 29.8031 2.75 20H0.75C0.75 30.9076 9.59238 39.75 20.5 39.75V37.75ZM2.75 20C2.75 10.1969 10.6969 2.25 20.5 2.25V0.25C9.59238 0.25 0.75 9.09238 0.75 20H2.75ZM20.5 2.25C30.3031 2.25 38.25 10.1969 38.25 20H40.25C40.25 9.09238 31.4076 0.25 20.5 0.25V2.25Z" fill="#140050"/>
</svg>