<svg width="220" height="110" viewBox="0 0 220 57" fill="none" xmlns="http://www.w3.org/2000/svg">
<path d="M33.684 0.00130941C52.3448 0.00130941 67.4827 15 67.4827 33.502C67.4827 52.0039 52.3542 67 33.684 67C18.2103 67 5.1757 56.6919 1.16097 42.6305L14.1169 47.9391C14.9953 52.2775 18.8674 55.5543 23.4979 55.5543C28.7736 55.5543 33.0642 51.3009 33.0642 46.0709C33.0642 45.9204 33.0642 45.7711 33.0549 45.6219L44.5446 37.4961C44.6406 37.4961 44.7366 37.4961 44.8339 37.4961C51.8623 37.4961 57.5805 31.8276 57.5805 24.8617C57.5805 17.8958 51.8623 12.2273 44.8339 12.2273C37.8054 12.2273 32.0939 17.9011 32.0939 24.8669C32.0939 24.9219 32.0939 24.9743 32.0939 25.0306L24.0364 36.6033C23.8591 36.5941 23.6805 36.5889 23.5033 36.5889C21.5787 36.587 19.6992 37.1615 18.1156 38.2358L0 30.813C1.38223 13.5691 15.9283 0 33.684 0V0.00130941ZM21.1813 50.8322L17.0293 49.1304C17.7824 50.7016 19.0995 51.9444 20.7281 52.6205C21.6006 52.9775 22.5363 53.1614 23.4814 53.1618C24.4266 53.1621 25.3624 52.9787 26.2351 52.6223C27.1078 52.2659 27.9001 51.7435 28.5664 51.0851C29.2326 50.4267 29.7597 49.6454 30.1172 48.7861C30.855 47.0442 30.8588 45.086 30.1278 43.3414C29.7736 42.4782 29.2484 41.6926 28.5829 41.0301C27.9173 40.3677 27.1245 39.8415 26.2504 39.4821C24.5631 38.7856 22.667 38.757 20.9587 39.4022L25.248 41.1604C26.5465 41.7028 27.5742 42.7271 28.1074 44.0101C28.6406 45.2932 28.6362 46.7312 28.0951 48.0111C27.8326 48.6444 27.4449 49.2203 26.9544 49.7055C26.4639 50.1907 25.8803 50.5756 25.2373 50.838C24.5944 51.1003 23.9049 51.2349 23.2088 51.2339C22.5126 51.2329 21.8235 51.0964 21.1813 50.8322ZM38.4692 24.8512C38.4692 28.344 41.327 31.1756 44.8499 31.1756C46.1255 31.1868 47.3757 30.8255 48.4419 30.1376C49.5082 29.4497 50.3422 28.4661 50.8383 27.3118C51.3345 26.1576 51.4702 24.8845 51.2284 23.6543C50.9867 22.4241 50.3782 21.2922 49.4803 20.4022C48.5824 19.5122 47.4355 18.9043 46.1852 18.6555C44.9349 18.4068 43.6376 18.5285 42.4578 19.0052C41.2781 19.4819 40.2691 20.292 39.559 21.3329C38.8488 22.3737 38.4695 23.5983 38.4692 24.8512ZM53.3299 24.8669C53.3299 29.5078 49.5191 33.2833 44.8365 33.2833C40.154 33.2833 36.3419 29.5078 36.3419 24.8669C36.3419 20.2261 40.1527 16.4479 44.8365 16.4479C49.5204 16.4479 53.3299 20.2248 53.3299 24.8669ZM102.981 23.2318C101.336 21.9934 98.3703 20.8348 94.6835 20.8348C89.3905 20.8348 85.7117 23.4531 85.7117 27.9997C85.7117 32.037 88.4868 33.7756 92.4909 35.1004C96.0044 36.2538 98.181 36.8128 98.181 38.6691C98.181 40.2937 96.7535 41.3908 93.7504 41.3908C91.5231 41.3908 89.0239 40.7441 86.9353 39.6483L85.3358 43.8938C87.9083 45.4426 91.2539 46.1521 94.0277 46.1521C99.7166 46.1521 103.677 43.3506 103.677 38.3602C103.677 34.7142 101.367 33.0582 97.3493 31.6509C93.6172 30.3208 91.0979 29.8456 91.0979 27.802C91.0979 26.1198 92.5122 25.1837 94.8008 25.1837C96.9404 25.2195 99.0221 25.8724 100.787 27.061L102.985 23.2331L102.981 23.2318ZM127.644 25.6511V21.2537H107.471V25.6498H114.981V45.7332H120.153V25.6498L127.644 25.6511ZM150.037 25.638V21.2537H133.375V45.7345H150.037V41.2965H138.542V35.5494H148.441V31.1534H138.542V25.6367L150.037 25.638ZM169.802 36.8965H162.987L166.358 27.0964L169.802 36.8965ZM171.229 40.985L172.899 45.7371H178.505L168.981 21.2564H163.783L154.522 45.7371H159.943L161.578 40.985H171.229ZM205.051 45.7371H210.003V21.2564H205.018L197.021 38.9296L188.718 21.2564H183.777V45.7371H188.73V30.8431L195.376 45.0197H198.295L205.053 30.7161L205.051 45.7371ZM215.999 23.1166H216.601C217.058 23.1166 217.224 23.3156 217.224 23.622C217.224 23.9283 216.993 24.1718 216.602 24.1718H215.999V23.1166ZM215.452 22.6061V25.9718H215.992V24.6627H216.682L217.349 25.9718H217.998L217.198 24.4978C217.381 24.419 217.536 24.2894 217.644 24.1248C217.753 23.9603 217.809 23.7681 217.807 23.5722C217.807 23.0708 217.51 22.6061 216.625 22.6061H215.452ZM213.735 24.3459C213.735 22.5943 215.018 21.492 216.588 21.492C218.158 21.492 219.428 22.5812 219.428 24.3459C219.428 26.1106 218.155 27.2103 216.588 27.2103C215.02 27.2103 213.735 26.1054 213.735 24.3459ZM220 24.3459C220 22.2421 218.408 20.9422 216.584 20.9422C214.759 20.9422 213.157 22.2448 213.157 24.3459C213.157 26.4471 214.756 27.7601 216.584 27.7601C218.411 27.7601 220 26.451 220 24.3459Z" fill="#231F20"/>
</svg>
