<svg width="21" height="21" viewBox="0 0 21 21" fill="none" xmlns="http://www.w3.org/2000/svg">
    <path d="M8.10653 14.375H12.8935V12.875H8.10653V14.375ZM12.8935 14.375C14.6092 14.375 16 15.7658 16 17.4815H17.5C17.5 14.9374 15.4376 12.875 12.8935 12.875V14.375ZM8.10653 12.875C5.56241 12.875 3.5 14.9374 3.5 17.4815H5C5 15.7658 6.39084 14.375 8.10653 14.375V12.875ZM12.875 7.375C12.875 8.68668 11.8117 9.75 10.5 9.75V11.25C12.6401 11.25 14.375 9.5151 14.375 7.375H12.875ZM10.5 9.75C9.18832 9.75 8.125 8.68668 8.125 7.375H6.625C6.625 9.5151 8.3599 11.25 10.5 11.25V9.75ZM8.125 7.375C8.125 6.06332 9.18832 5 10.5 5V3.5C8.3599 3.5 6.625 5.2349 6.625 7.375H8.125ZM10.5 5C11.8117 5 12.875 6.06332 12.875 7.375H14.375C14.375 5.2349 12.6401 3.5 10.5 3.5V5ZM19.125 10.5C19.125 15.2635 15.2635 19.125 10.5 19.125V20.625C16.0919 20.625 20.625 16.0919 20.625 10.5H19.125ZM10.5 19.125C5.73654 19.125 1.875 15.2635 1.875 10.5H0.375C0.375 16.0919 4.90812 20.625 10.5 20.625V19.125ZM1.875 10.5C1.875 5.73654 5.73654 1.875 10.5 1.875V0.375C4.90812 0.375 0.375 4.90812 0.375 10.5H1.875ZM10.5 1.875C15.2635 1.875 19.125 5.73654 19.125 10.5H20.625C20.625 4.90812 16.0919 0.375 10.5 0.375V1.875Z" fill="#140050"/>
</svg>