<svg width="40" height="40" viewBox="0 0 40 40" fill="none" xmlns="http://www.w3.org/2000/svg">
    <path d="M15.2131 27.25H24.7869V25.25H15.2131V27.25ZM24.7869 27.25C28.4945 27.25 31.5 30.2555 31.5 33.9631H33.5C33.5 29.151 29.599 25.25 24.7869 25.25V27.25ZM15.2131 25.25C10.401 25.25 6.5 29.151 6.5 33.9631H8.5C8.5 30.2555 11.5055 27.25 15.2131 27.25V25.25ZM25.25 13.75C25.25 16.6495 22.8995 19 20 19V21C24.0041 21 27.25 17.7541 27.25 13.75H25.25ZM20 19C17.1005 19 14.75 16.6495 14.75 13.75H12.75C12.75 17.7541 15.9959 21 20 21V19ZM14.75 13.75C14.75 10.8505 17.1005 8.5 20 8.5V6.5C15.9959 6.5 12.75 9.74593 12.75 13.75H14.75ZM20 8.5C22.8995 8.5 25.25 10.8505 25.25 13.75H27.25C27.25 9.74593 24.0041 6.5 20 6.5V8.5ZM37.75 20C37.75 29.8031 29.8031 37.75 20 37.75V39.75C30.9076 39.75 39.75 30.9076 39.75 20H37.75ZM20 37.75C10.1969 37.75 2.25 29.8031 2.25 20H0.25C0.25 30.9076 9.09238 39.75 20 39.75V37.75ZM2.25 20C2.25 10.1969 10.1969 2.25 20 2.25V0.25C9.09238 0.25 0.25 9.09238 0.25 20H2.25ZM20 2.25C29.8031 2.25 37.75 10.1969 37.75 20H39.75C39.75 9.09238 30.9076 0.25 20 0.25V2.25Z" fill="white"/>
</svg>