<svg width="93" height="31" viewBox="0 0 93 31" fill="none" xmlns="http://www.w3.org/2000/svg">
    <path fill-rule="evenodd" clip-rule="evenodd" d="M23.8447 29.9683H15.8935L9.93108 7.22124C9.64808 6.17488 9.04718 5.24984 8.16328 4.81385C5.95741 3.7182 3.52669 2.84623 0.875 2.40646V1.5307H13.6838C15.4516 1.5307 16.7774 2.84623 16.9984 4.37407L20.092 20.7823L28.0394 1.5307H35.7696L23.8447 29.9683ZM40.1889 29.9683H32.6797L38.8631 1.5307H46.3723L40.1889 29.9683ZM56.0875 9.40893C56.3085 7.87729 57.6343 7.00153 59.1812 7.00153C61.6119 6.78164 64.2597 7.22142 66.4694 8.31328L67.7953 2.19054C65.5855 1.31478 63.1548 0.875 60.949 0.875C53.6607 0.875 48.3573 4.81403 48.3573 10.2809C48.3573 14.4398 52.1139 16.6235 54.7655 17.9391C57.6343 19.2508 58.7392 20.1266 58.5182 21.4383C58.5182 23.4059 56.3085 24.2817 54.1026 24.2817C51.4509 24.2817 48.7992 23.6258 46.3724 22.5302L45.0466 28.6567C47.6982 29.7486 50.567 30.1883 53.2187 30.1883C61.3909 30.4044 66.4694 26.4692 66.4694 20.5625C66.4694 13.1243 56.0875 12.6883 56.0875 9.40893ZM92.7498 29.9683L86.7874 1.5307H80.383C79.0572 1.5307 77.7313 2.40646 77.2894 3.7182L66.2484 29.9683H73.9786L75.5216 25.8131H85.0196L85.9035 29.9683H92.7498ZM81.4879 9.18941L83.6937 19.9071H77.5103L81.4879 9.18941Z" fill="#172B85"/>
</svg>