<svg width="93" height="58" viewBox="0 0 93 58" fill="none" xmlns="http://www.w3.org/2000/svg">
    <path fill-rule="evenodd" clip-rule="evenodd" d="M29.6272 44.5953C30.2147 44.2901 31.2133 43.8896 32.2712 43.8896C34.6993 43.8896 36.0118 45.5292 36.0118 48.5802C36.0118 52.1443 34.2497 53.8794 31.4097 53.8794C30.3713 53.8794 28.7654 53.5553 27.5902 52.9444V39.6387L29.6272 39.1619V44.5953ZM29.608 52.2393C30.2342 52.5063 30.9201 52.5441 31.4098 52.5441C32.8591 52.5441 33.9558 51.6674 33.9558 48.58C33.9558 46.1582 33.0548 45.3767 31.7427 45.3767C30.9589 45.3767 30.3915 45.5864 29.608 46.0058V52.2393ZM8.74828 44.1373H8.88545L11.5484 53.6507H13.6635L16.8367 40.1339H14.545L12.5474 50.2191H12.4109L9.68802 40.1339H7.94502L5.39911 50.2191H5.26194L3.0683 40.1339H0.875L4.04787 53.6507H6.16253L8.74828 44.1373ZM25.5153 53.0018V51.553C24.4381 52.1821 23.4592 52.5442 22.4017 52.5442C20.3844 52.5442 19.4249 51.5334 19.4249 49.2461H25.8091V48.5411C25.8091 45.4342 24.3009 43.8896 21.8534 43.8896C18.9157 43.8896 17.4076 45.9868 17.4076 48.884C17.4076 51.8965 18.7588 53.8794 22.0487 53.8794C23.4592 53.8794 24.6341 53.4981 25.5153 53.0018ZM23.9486 47.9696H19.4647C19.6794 46.0636 20.5994 45.1674 21.7948 45.1674C22.8523 45.1674 23.8516 45.9675 23.9486 47.9696ZM45.0212 50.7909H44.9228L40.5359 40.1339H38.1663V53.6507H39.929V44.0807H40.105L44.1009 53.6507H45.3537L49.3493 43.8518H49.5259V53.6507H51.6409V40.1339H49.2121L45.0212 50.7909ZM53.7954 48.884C53.7954 45.5478 55.6756 43.8896 58.2607 43.8896C60.8461 43.8896 62.7266 45.5478 62.7266 48.884C62.7266 52.1444 60.9441 53.8794 58.2607 53.8794C55.5772 53.8794 53.7954 52.1444 53.7954 48.884ZM60.6697 48.884C60.6697 46.3108 59.5921 45.2245 58.2606 45.2245C56.9679 45.2245 55.8515 46.3108 55.8515 48.884C55.8515 51.4967 56.8706 52.5442 58.2606 52.5442C59.651 52.5442 60.6697 51.4967 60.6697 48.884ZM69.5799 43.8896C67.3288 43.8896 65.4677 44.7855 64.5865 45.3003V53.6505H66.6236V46.1011C67.2304 45.7585 68.2294 45.4146 69.0132 45.4146C70.0119 45.4146 70.7749 45.6817 70.7749 47.1878V53.6505H72.8117V46.7488C72.8117 44.7855 71.9312 43.8896 69.5799 43.8896ZM82.7409 51.553V53.0018C81.86 53.4981 80.6854 53.8794 79.2746 53.8794C75.985 53.8794 74.6334 51.8965 74.6334 48.884C74.6334 45.9868 76.1419 43.8896 79.0792 43.8896C81.5278 43.8896 83.0363 45.4342 83.0363 48.5411V49.2461H76.6515C76.6515 51.5334 77.6109 52.5442 79.6279 52.5442C80.6854 52.5442 81.6646 52.1821 82.7409 51.553ZM76.6905 47.9696H81.1751C81.0778 45.9675 80.0782 45.1674 79.0206 45.1674C77.8256 45.1674 76.9063 46.0636 76.6905 47.9696ZM92.7502 44.2137H90.6545L88.4211 51.2287H88.3043L85.7976 44.2137H83.6431L87.4034 53.7456C86.9327 55.1559 86.111 56.1863 84.7792 56.1863V57.7487C87.0303 57.7487 88.2254 56.3768 89.2049 53.7456L92.7502 44.2137Z" fill="#0068A3"/>
    <path fill-rule="evenodd" clip-rule="evenodd" d="M45.4995 0.175232C48.1947 0.175232 50.7472 0.786168 53.0205 1.87082C53.3776 2.03569 53.7337 2.21708 54.0908 2.41735L52.5106 3.79398L50.1365 1.40452L46.1295 4.88335L43.7495 2.35498L36.2853 8.904L41.0706 14.0373L39.1901 15.6472L43.9033 20.7883L42.0339 22.3945L48.769 29.6917L52.7669 26.109L56.2235 29.9483C55.5359 30.4685 54.787 30.9581 53.9619 31.4105C51.4624 32.7979 48.5736 33.5923 45.4995 33.5923C36.0453 33.5923 28.3345 26.0857 28.3345 16.8843C28.3345 7.68078 36.0453 0.175232 45.4995 0.175232ZM42.3712 15.8276L46.453 12.2496L50.1285 16.2237L46.047 19.8003L42.3712 15.8276ZM49.3558 19.116L45.2736 22.6929L48.9498 26.667L53.0316 23.0891L49.3558 19.116ZM39.4507 9.04252L43.5324 5.46558L47.2069 9.43869L43.1251 13.0156L39.4507 9.04252ZM50.0022 4.43462L46.9408 7.11707L49.697 10.0979L52.7583 7.41445L50.0022 4.43462ZM52.38 19.4063L55.4424 16.7228L58.1985 19.7033L55.1372 22.3861L52.38 19.4063ZM58.1339 22.7415L55.0733 25.4253L57.8295 28.4041L60.8908 25.7213L58.1339 22.7415ZM56.3063 11.6303L58.3472 9.84169L60.1844 11.8282L58.1446 13.6166L56.3063 11.6303ZM55.7398 3.93974L53.6989 5.72804L55.5361 7.71459L57.5774 5.92629L55.7398 3.93974ZM58.9151 17.5331L60.956 15.7445L62.7936 17.7307L60.7527 19.5193L58.9151 17.5331ZM52.8235 10.4259L49.7625 13.1097L52.5193 16.0885L55.5796 13.4057L52.8235 10.4259Z" fill="#0068A3"/>
</svg>